<?xml version="1.0" encoding="utf-8"?>
<svg xmlns="http://www.w3.org/2000/svg" x="0px" y="0px" width="250px" height="250px">
<path style="fill:#A49262;" d="M125,0.5C56.2,0.5,0.5,56.2,0.5,125c0,68.8,55.7,124.5,124.5,124.5c68.8,0,124.5-55.7,124.5-124.5
	C249.5,56.2,193.7,0.5,125,0.5z"/>
<path style="fill:#FFFFFF;" d="M125,12C62.6,12,12,62.6,12,125c0,62.4,50.6,113,113,113c62.4,0,113-50.6,113-113
	C238,62.6,187.4,12,125,12z M125.5,212c-47.8,0-86.6-38.8-86.6-86.6s38.8-86.6,86.6-86.6c47.9,0,86.6,38.8,86.6,86.6
	S173.3,212,125.5,212z M173.9,172.8c0,0,0.6,12.5-20.5,16.7c-21.1,4.1-27.9,13.7-27.9,15h0c0-1.3-6.8-10.9-27.9-15
	c-21.1-4.1-20.5-16.7-20.5-16.7V62.3h96.8V172.8z"/>
<path d="M125.1,4.9C59.2,4.9,5.7,58.5,5.7,124.3c0,65.8,53.6,119.4,119.4,119.4s119.4-53.6,119.4-119.4
	C244.4,58.5,190.9,4.9,125.1,4.9 M243.5,123.8h-4.7c0-3-0.2-6-0.4-8.9l4.7-0.4C243.3,117.6,243.4,120.7,243.5,123.8 M243,113.5
	l-4.7,0.4c-0.3-3-0.7-6-1.2-8.9l4.6-0.8C242.3,107.3,242.7,110.4,243,113.5 M125.1,236.6c-61.9,0-112.3-50.4-112.3-112.3
	C12.8,62.4,63.2,12,125.1,12c61.9,0,112.3,50.4,112.3,112.3C237.3,186.2,187,236.6,125.1,236.6 M241.6,103.3l-4.6,0.8
	c-0.5-2.9-1.2-5.9-1.9-8.7l4.5-1.2C240.3,97.1,241,100.2,241.6,103.3 M239.3,93.2l-4.5,1.2c-0.8-2.9-1.7-5.7-2.7-8.5l4.4-1.6
	C237.5,87.2,238.5,90.2,239.3,93.2 M236.2,83.3l-4.4,1.6c-1-2.8-2.2-5.6-3.5-8.3l4.2-2C233.9,77.5,235.1,80.4,236.2,83.3
	 M232.1,73.8l-4.2,2c-1.3-2.7-2.7-5.3-4.2-7.9l4-2.3C229.4,68.2,230.8,71,232.1,73.8 M227.3,64.7l-4,2.3c-1.5-2.6-3.1-5.1-4.8-7.5
	l3.8-2.7C224.1,59.4,225.7,62,227.3,64.7 M221.7,56l-3.8,2.7c-1.7-2.4-3.5-4.8-5.4-7.1l3.6-3C218,51,219.9,53.5,221.7,56
	 M215.4,47.9l-3.6,3c-1.9-2.3-3.9-4.5-6-6.6l3.3-3.3C211.3,43.2,213.4,45.5,215.4,47.9 M208.4,40.3l-3.3,3.3c-2.1-2.1-4.3-4.1-6.6-6
	l3-3.6C203.9,36,206.2,38.1,208.4,40.3 M200.8,33.3l-3,3.6c-2.3-1.9-4.7-3.7-7.1-5.4l2.7-3.8C195.9,29.4,198.4,31.3,200.8,33.3
	 M192.5,27.1l-2.7,3.8c-2.4-1.7-4.9-3.3-7.5-4.8l2.3-4C187.4,23.6,190,25.3,192.5,27.1 M183.8,21.6l-2.3,4c-2.6-1.5-5.2-2.9-7.9-4.2
	l2-4.2C178.4,18.6,181.1,20,183.8,21.6 M174.6,16.8l-2,4.2c-2.7-1.2-5.4-2.4-8.2-3.5l1.6-4.4C169,14.3,171.8,15.5,174.6,16.8
	 M165.1,12.9l-1.6,4.4c-2.8-1-5.6-1.9-8.5-2.7l1.2-4.5C159.2,10.9,162.2,11.8,165.1,12.9 M155.2,9.8l-1.2,4.5
	c-2.9-0.8-5.8-1.4-8.7-1.9l0.8-4.6C149.2,8.4,152.2,9,155.2,9.8 M145.1,7.6l-0.8,4.6c-2.9-0.5-5.9-0.9-8.9-1.2l0.4-4.7
	C139,6.7,142.1,7.1,145.1,7.6 M134.9,6.3l-0.4,4.7c-3-0.2-5.9-0.4-8.9-0.4V5.9C128.7,5.9,131.8,6.1,134.9,6.3 M124.6,5.9v4.7
	c-3,0-6,0.2-8.9,0.4l-0.4-4.7C118.3,6.1,121.4,5.9,124.6,5.9 M114.3,6.4l0.4,4.7c-3,0.3-6,0.7-8.9,1.2L105,7.6
	C108,7.1,111.1,6.7,114.3,6.4 M104,7.8l0.8,4.6c-3,0.5-5.9,1.2-8.7,1.9l-1.2-4.5C97.9,9,100.9,8.4,104,7.8 M93.9,10.1l1.2,4.5
	c-2.9,0.8-5.7,1.7-8.5,2.7L85,12.9C87.9,11.8,90.9,10.9,93.9,10.1 M84.1,13.2l1.6,4.4c-2.8,1-5.6,2.2-8.3,3.5l-2-4.2
	C78.3,15.5,81.2,14.3,84.1,13.2 M74.6,17.2l2,4.2c-2.7,1.3-5.3,2.7-7.9,4.2l-2.3-4C69,20,71.8,18.6,74.6,17.2 M65.5,22l2.3,4
	c-2.6,1.5-5.1,3.1-7.5,4.8l-2.7-3.8C60.1,25.3,62.8,23.6,65.5,22 M56.8,27.6l2.7,3.8c-2.4,1.7-4.8,3.5-7.1,5.4l-3-3.6
	C51.7,31.3,54.2,29.5,56.8,27.6 M48.6,34l3,3.6c-2.3,1.9-4.5,3.9-6.6,6l-3.3-3.3C43.9,38.1,46.2,36,48.6,34 M41,41l3.3,3.3
	c-2.1,2.1-4.1,4.3-6,6.6l-3.6-3C36.7,45.5,38.8,43.2,41,41 M34.1,48.6l3.6,3c-1.9,2.3-3.7,4.7-5.4,7.1L28.4,56
	C30.2,53.5,32.1,51,34.1,48.6 M27.8,56.8l3.8,2.7c-1.7,2.4-3.3,5-4.8,7.5l-4.1-2.3C24.4,62,26.1,59.4,27.8,56.8 M22.3,65.5l4.1,2.3
	c-1.5,2.6-2.9,5.2-4.2,7.9l-4.2-2C19.3,71,20.8,68.2,22.3,65.5 M17.6,74.7l4.2,2c-1.2,2.7-2.4,5.4-3.5,8.2L14,83.3
	C15,80.4,16.3,77.5,17.6,74.7 M13.6,84.3l4.4,1.6c-1,2.8-1.9,5.6-2.7,8.5l-4.5-1.2C11.6,90.2,12.6,87.2,13.6,84.3 M10.6,94.1
	l4.5,1.2c-0.8,2.9-1.4,5.8-1.9,8.7l-4.6-0.8C9.1,100.2,9.8,97.1,10.6,94.1 M8.4,104.2L13,105c-0.5,2.9-0.9,5.9-1.2,8.9l-4.7-0.4
	C7.4,110.4,7.9,107.3,8.4,104.2 M7.1,114.5l4.7,0.4c-0.2,2.9-0.4,5.9-0.4,8.9H6.7C6.7,120.7,6.8,117.6,7.1,114.5 M6.7,124.8h4.7
	c0,3,0.2,6,0.4,8.9l-4.7,0.4C6.8,131.1,6.7,127.9,6.7,124.8 M7.2,135.1l4.7-0.4c0.3,3,0.7,5.9,1.2,8.9l-4.6,0.8
	C7.9,141.3,7.4,138.2,7.2,135.1 M8.6,145.3l4.6-0.8c0.5,3,1.2,5.9,1.9,8.8l-4.5,1.2C9.8,151.5,9.1,148.4,8.6,145.3 M10.8,155.4
	l4.5-1.2c0.8,2.9,1.7,5.7,2.7,8.5l-4.4,1.6C12.6,161.4,11.6,158.4,10.8,155.4 M14,165.3l4.4-1.6c1,2.8,2.2,5.5,3.4,8.2l-4.2,2
	C16.3,171.1,15,168.2,14,165.3 M18,174.8l4.2-2c1.3,2.7,2.7,5.3,4.2,7.9l-4.1,2.3C20.8,180.4,19.3,177.6,18,174.8 M22.8,183.9
	l4.1-2.3c1.5,2.6,3.1,5.1,4.8,7.5l-3.8,2.7C26.1,189.2,24.4,186.6,22.8,183.9 M28.4,192.6l3.8-2.7c1.7,2.4,3.5,4.8,5.4,7.1l-3.6,3
	C32.1,197.6,30.2,195.1,28.4,192.6 M34.7,200.7l3.6-3c1.9,2.3,3.9,4.5,6,6.6l-3.3,3.3C38.8,205.4,36.7,203.1,34.7,200.7 M41.7,208.3
	L45,205c2.1,2.1,4.3,4.1,6.6,6l-3,3.6C46.2,212.6,43.9,210.5,41.7,208.3 M49.4,215.3l3-3.6c2.3,1.9,4.7,3.7,7.1,5.4l-2.7,3.8
	C54.2,219.2,51.8,217.3,49.4,215.3 M57.6,221.5l2.7-3.8c2.4,1.7,5,3.3,7.5,4.8l-2.3,4.1C62.8,225,60.1,223.3,57.6,221.5 M66.3,227
	l2.3-4.1c2.6,1.5,5.2,2.9,7.9,4.2l-2,4.2C71.8,230.1,69,228.6,66.3,227 M75.5,231.8l2-4.2c2.7,1.2,5.4,2.4,8.2,3.5l-1.6,4.4
	C81.2,234.3,78.3,233.1,75.5,231.8 M85,235.7l1.6-4.4c2.8,1,5.6,1.9,8.5,2.7l-1.2,4.5C90.9,237.7,87.9,236.8,85,235.7 M94.9,238.8
	l1.2-4.5c2.9,0.8,5.8,1.4,8.7,1.9l-0.8,4.6C100.9,240.3,97.9,239.6,94.9,238.8 M105,241l0.8-4.6c2.9,0.5,5.9,0.9,8.9,1.2l-0.4,4.7
	C111.1,241.9,108,241.5,105,241 M115.2,242.3l0.4-4.7c2.9,0.2,5.9,0.4,8.9,0.4v4.7C121.4,242.7,118.3,242.5,115.2,242.3
	 M125.5,242.7V238c3,0,6-0.2,8.9-0.4l0.4,4.7C131.8,242.5,128.7,242.7,125.5,242.7 M135.9,242.2l-0.4-4.7c3-0.3,6-0.7,8.9-1.2
	l0.8,4.6C142.1,241.5,139,241.9,135.9,242.2 M146.1,240.8l-0.8-4.6c3-0.5,5.9-1.2,8.7-1.9l1.2,4.5
	C152.2,239.6,149.2,240.3,146.1,240.8 M156.2,238.5L155,234c2.9-0.8,5.7-1.7,8.5-2.7l1.6,4.4C162.2,236.8,159.2,237.7,156.2,238.5
	 M166,235.4l-1.6-4.4c2.8-1,5.5-2.2,8.2-3.5l2,4.2C171.8,233.1,169,234.3,166,235.4 M175.5,231.4l-2-4.2c2.7-1.3,5.3-2.7,7.9-4.2
	l2.3,4.1C181.1,228.6,178.4,230.1,175.5,231.4 M184.7,226.6l-2.3-4c2.6-1.5,5.1-3.1,7.5-4.8l2.7,3.8
	C190,223.3,187.4,225,184.7,226.6 M193.3,221l-2.7-3.8c2.4-1.7,4.8-3.5,7.1-5.4l3,3.6C198.4,217.3,195.9,219.2,193.3,221
	 M201.5,214.6l-3-3.6c2.3-1.9,4.5-3.9,6.6-6l3.3,3.3C206.2,210.5,203.9,212.6,201.5,214.6 M209.1,207.6l-3.3-3.3
	c2.1-2.1,4.1-4.3,6-6.6l3.6,3C213.4,203.1,211.3,205.4,209.1,207.6 M216,200l-3.6-3c1.9-2.3,3.7-4.7,5.4-7.1l3.8,2.7
	C219.9,195.1,218,197.6,216,200 M222.3,191.8l-3.8-2.7c1.7-2.5,3.3-5,4.8-7.5l4,2.3C225.7,186.6,224.1,189.2,222.3,191.8
	 M227.8,183.1l-4-2.3c1.5-2.6,2.9-5.2,4.2-7.9l4.2,2C230.8,177.6,229.4,180.4,227.8,183.1 M232.5,173.9l-4.2-2
	c1.2-2.7,2.4-5.4,3.5-8.2l4.4,1.6C235.1,168.2,233.9,171.1,232.5,173.9 M236.5,164.3l-4.4-1.6c1-2.8,1.9-5.6,2.7-8.5l4.5,1.2
	C238.5,158.4,237.5,161.4,236.5,164.3 M239.6,154.5l-4.5-1.2c0.8-2.9,1.4-5.8,1.9-8.8l4.6,0.8C241,148.4,240.3,151.5,239.6,154.5
	 M241.7,144.4l-4.6-0.8c0.5-2.9,0.9-5.9,1.2-8.9l4.7,0.4C242.7,138.2,242.3,141.3,241.7,144.4 M243,134.1l-4.7-0.4
	c0.2-2.9,0.4-5.9,0.4-8.9h4.7C243.4,127.9,243.3,131.1,243,134.1 M125.4,212.7c-48.2,0-87.4-39.2-87.4-87.4
	c0-48.2,39.2-87.4,87.4-87.4c48.2,0,87.3,39.2,87.3,87.4C212.8,173.5,173.6,212.7,125.4,212.7z M125.4,39.4
	c-47.4,0-85.9,38.5-85.9,85.9s38.5,85.9,85.9,85.9c47.4,0,85.9-38.5,85.9-85.9S172.8,39.4,125.4,39.4z M175.3,174V60.1H75.6V174
	c0,0-0.7,12.9,21.1,17.2c21.8,4.2,28.7,14.1,28.7,15.5h0c0-1.4,7-11.2,28.7-15.5C176,186.9,175.3,174,175.3,174 M152.6,187.9
	c-20.5,4-27.1,13.3-27.1,14.6h0c0-1.3-6.6-10.6-27.1-14.6c-20.5-4-19.9-16.2-19.9-16.2V63.9h94.1v107.9
	C172.5,171.7,173.1,183.9,152.6,187.9 M84.8,223.3l-11.2-5.5l1.3-3.4l0.5,0.3c-0.1,0.7-0.3,1.6,0,2.4c0.3,0.9,1.1,1.3,1.8,1.7
	l1.3,0.7l5-10.3c0.3-0.6,0.4-1.2-0.2-1.7c-0.1-0.1-0.2-0.2-1.1-0.6l0.3-0.6l5.8,2.8l-0.3,0.6c-1.5-0.7-2-0.8-2.7,0.5l-5,10.3
	l1.4,0.7c1.2,0.5,1.7,0.7,2.5,0.3c0.7-0.3,1.2-0.8,1.8-1.4l0.6,0.3L84.8,223.3z M67.1,213.2c-0.7-0.6-1.1-0.9-1.1-1.4
	c0-0.3,0.1-0.6,0.3-0.8l6.3-8.3c0.5-0.7,0.8-0.8,1.5-0.5c0.2,0.1,0.2,0.1,1.1,0.6l0.4-0.6l-5.2-3.9l-0.4,0.5
	c0.9,0.7,1.2,0.9,1.2,1.4c0,0.5-0.3,0.9-0.6,1.3l-2.8,3.8L62,201l2.8-3.8c1-1.3,1.2-1.2,2.8-0.1l0.4-0.5l-5.2-3.9l-0.4,0.5
	c1.3,1,1.6,1.4,0.7,2.6l-5.9,7.8c-0.5,0.6-0.9,1-1.7,0.7c-0.2-0.1-0.2-0.1-0.9-0.6l-0.4,0.5l5,3.7l0.4-0.5c-1.1-0.9-1.5-1.3-0.6-2.6
	l2.4-3.2l5.7,4.3l-2.5,3.3c-0.4,0.5-0.8,1-1.6,0.7c-0.2-0.1-0.3-0.1-1-0.6l-0.4,0.5l5,3.8L67.1,213.2z M47.9,196.6
	c-0.7-0.9-0.8-1.1-0.8-1.6c0.1-0.5,0.5-0.8,0.8-1l7.7-6.2c1.2-0.8,1.5-0.6,2.6,0.7l0.5-0.4l-7.5-9.2l-3.7,2.6l0.4,0.5
	c1-0.6,2-0.9,3.1-0.8c1.2,0.2,2,1,2.6,1.8c0.5,0.7,0.9,1.1,1.1,1.7c0.3,0.8-0.1,1.2-0.7,1.6l-3.7,3l-0.9-1c-0.3-0.4-0.8-1.1-0.5-1.8
	c0.2-0.4,0.5-0.7,0.9-1.1l-0.4-0.5l-3.8,3.1l0.4,0.5c0.4-0.3,0.9-0.6,1.5-0.6c0.6,0,1,0.5,1.4,0.9l0.8,1.1l-4.4,3.6l-1.8-2.2
	c-1.2-1.6-1.2-2.3,0.2-4.3l-0.4-0.5l-2.5,2.6l6.6,8.1L47.9,196.6z M31,172c-0.3-0.9-0.5-1.3-0.2-1.8c0.2-0.4,0.5-0.5,1.2-0.8
	l6.9-2.8c1-0.5,2-0.9,2.6-2.4c0.7-1.6,0.3-3.3-0.3-4.9c-0.5-1.1-1-2.1-2-2.9c-1.9-1.5-3.5-0.9-5.5-0.1l-5.5,2.2
	c-1.7,0.6-2.2,0.4-3-1l-0.6,0.2l1.8,4.6l0.6-0.3c-0.5-1.7-0.3-2,1.3-2.7l5.5-2.2c1.4-0.6,2.6-1.1,3.9-0.5c1,0.4,1.9,1.4,2.4,2.7
	c0.7,1.7,0.5,3.4-0.6,4.4c-0.5,0.5-1.3,0.8-2.1,1.1l-6.4,2.6c-1.5,0.5-1.7,0.2-2.4-1.3l-0.6,0.2l2.3,5.8L31,172z M21.3,138.6
	c-0.1-1.6,0.3-2.1,1.9-2.3l8.2-1.1c-0.9,0.8-1.2,1-2.1,1.9l-7.8,7.5l0.6,4.1l0.7-0.1c-0.1-1.4-0.1-1.9,0.9-2.2l9.4-1.3
	c0.9-0.1,1.8-0.2,2.3,0.7c0.2,0.3,0.3,0.8,0.4,1.1l0.7-0.1l-0.7-5.1l-0.7,0.1c0.1,0.5,0.2,1.4-0.5,1.9c-0.4,0.3-1,0.4-1.6,0.5
	l-9.6,1.3c1-0.8,1.2-1,2-1.8l9.4-9l-0.1-1l-11.4,1.6c-1.1,0.1-1.7,0.1-2.1-0.4c-0.3-0.3-0.4-0.8-0.5-1.3l-0.7,0.1l0.7,4.9
	L21.3,138.6z M20.4,125.4c0.1-1,0.1-1.4,0.4-1.7c0.3-0.4,0.8-0.4,1.2-0.3l9.6,0.3c1.9,0.1,1.9,0.4,1.9,2.2l0.7,0l0.2-6.5l-0.7,0
	c0,1.1-0.1,1.5-0.4,1.8c-0.3,0.3-0.7,0.3-1.4,0.3l-9.8-0.3c-1.5-0.1-1.5-0.6-1.5-2.1l-0.7,0l-0.2,6.3L20.4,125.4z M21,112.3
	c0.4-1.3,0.7-1.5,1.8-1.8l13.4-2.9l0.1-0.8l-11.1-7.3c-1.2-0.7-1.5-1-1.3-2.8l-0.7-0.1l-1,4.9l0.7,0.1c0.3-1.1,0.3-1.2,0.4-1.3
	c0.2-0.3,0.6-0.3,0.7-0.3c0.2,0,0.4,0.1,0.9,0.5l8.7,5.6c-1.7,0.3-2.1,0.3-4,0.7l-6.5,1.3c-0.4,0.1-0.6,0.1-0.8,0.1
	c-0.6-0.1-0.5-0.7-0.3-1.8l-0.7-0.1l-1.1,5.8L21,112.3z M26.7,89.1c0.5-1,0.6-1.3,1.1-1.4c0.4-0.1,0.9,0.1,1.2,0.2l9.1,4
	c1.3,0.6,1.2,1,0.6,2.6l0.6,0.3L44.1,84l-4-2.1l-0.3,0.6c0.9,0.6,1.8,1.4,2.1,2.4c0.4,1.2,0,2.2-0.4,3.1c-0.3,0.8-0.6,1.3-1,1.7
	c-0.6,0.6-1.2,0.4-1.8,0.1l-4.3-1.9l0.6-1.3c0.2-0.5,0.6-1.2,1.4-1.3c0.4,0,0.9,0.1,1.4,0.3l0.3-0.6l-4.5-2l-0.3,0.6
	c0.4,0.2,1,0.5,1.2,1.1c0.3,0.6,0,1.1-0.2,1.6l-0.6,1.2l-5.2-2.3l1.1-2.6c0.8-1.8,1.5-2.1,3.9-1.8l0.3-0.6l-3.4-1.1l-4.3,9.6
	L26.7,89.1z M35.2,70.2l2.9-4.1c0.7-1,1.6-2.3,2.6-3c1.3-0.9,2.8-1,4.1-0.1c0.6,0.4,1.2,1.2,1.4,2.3c0.2,1.3-0.3,2.3-0.7,3.1
	c1.4-1.2,1.5-1.2,3.8-1.2l3.4,0c1.3,0,1.5-0.1,2.2-1l0.6,0.4l-1.9,2.7c-0.6,0.1-1,0.2-1.8,0.2c-0.4,0-2.4-0.2-2.9-0.2
	c-3.6-0.2-3.6-0.1-5,1.9l3.5,2.5c0.5,0.3,0.9,0.6,1.4,0.5c0.5-0.1,0.7-0.4,1.3-1.3l0.5,0.4L47,78.6l-0.5-0.4
	c0.9-1.4,1.1-1.8-0.3-2.8l-7.8-5.5c-0.5-0.4-0.9-0.6-1.3-0.5c-0.4,0.1-0.6,0.3-1.3,1.2L35.2,70.2z M44.3,69.4c0.4-0.6,0.7-1,0.8-1.6
	c0.2-1.2-0.6-2.2-1.5-2.8c-1.4-1-2.4-0.8-2.9-0.5c-0.8,0.4-1.3,1-2.4,2.6l5.1,3.6L44.3,69.4z M55.7,59.8l3.2,3.3l0.5-0.4
	c-0.2-0.5-0.3-0.6-0.5-1.2c0.7-0.1,1.6-0.2,2.7-0.8c0.5-0.3,0.9-0.6,1.2-0.9c1.7-1.6,1.4-3.6,1.1-4.4c-0.3-0.8-0.8-1.3-1.1-1.7
	c-1.8-1.9-3.5-1.4-5.3-0.8c-2.8,0.8-3.6,1-4.4,0.9c-0.4-0.1-0.9-0.2-1.2-0.6c-0.8-0.8-0.8-2.1,0.3-3.2c0.8-0.8,2-1.1,2.9-0.9
	c0.7,0.1,1.4,0.5,2,0.9l0.5-0.4l-2.8-2.8L54.4,47c0.2,0.4,0.2,0.6,0.3,0.9c-0.6,0.1-1,0.2-1.9,0.6c-0.4,0.2-0.9,0.5-1.2,0.9
	c-1.3,1.3-2.1,3.6-0.3,5.5c1.6,1.6,3.3,1.1,5.1,0.6c2.4-0.7,2.6-0.8,3.2-0.9c0.5-0.1,1.7-0.3,2.7,0.7c1.1,1.1,1,2.7-0.3,4
	c-0.5,0.4-1.1,0.8-1.7,1c-1.9,0.5-3.5-0.6-4.1-1L55.7,59.8z M62.4,41.4c0.8-0.5,1.2-0.7,1.6-0.6c0.5,0.1,0.7,0.4,1,0.7l5.5,7.9
	c1,1.5,0.8,1.7-0.7,2.9l0.4,0.6l5.3-3.7l-0.4-0.6c-0.9,0.6-1.2,0.8-1.7,0.8c-0.4-0.1-0.7-0.4-1.1-1l-5.6-8c-0.8-1.2-0.4-1.5,0.8-2.5
	l-0.4-0.5L62,40.9L62.4,41.4z M74.6,36.9l0.6-0.3c-0.1-0.8-0.2-1.5,0-2.3c0.2-0.9,0.6-1.1,1.7-1.8l1.4-0.7l5,10.2
	c0.6,1.3,0.2,1.6-1.2,2.4l0.3,0.6l5.8-2.8l-0.3-0.6c-0.9,0.4-1,0.4-1.1,0.4c-0.8,0.1-1.1-0.3-1.4-0.9l-5-10.3l1.3-0.6
	c0.7-0.4,1.5-0.7,2.4-0.4c0.8,0.3,1.4,0.9,1.9,1.5l0.5-0.3l-1.9-3.1l-11.2,5.4L74.6,36.9z M91.7,25.8c1.2-0.2,1.6-0.2,2.6,0.6
	l5.3,4.9l1.1,4c0.2,0.7,0.2,1.3-0.4,1.6c-0.2,0.1-0.4,0.2-1.2,0.5l0.2,0.6l6.3-1.7l-0.2-0.6c-1.6,0.4-2.1,0.4-2.5-0.9l-1.1-4.1
	l1.9-6.6c0.5-1.4,0.8-1.6,2.1-2.1l-0.2-0.7l-5,1.3l0.2,0.7c1.3-0.3,1.9-0.4,2.1,0.1c0,0.2,0,0.4-0.1,0.6l-1.7,5.9l-4.4-4.4
	c-0.2-0.2-0.3-0.4-0.4-0.5c-0.1-0.5,0.5-0.7,1.4-0.9l-0.2-0.7l-6,1.6L91.7,25.8z M124.1,26.9c0.1-1.3,0.4-2.6,1.1-3.7
	c1-1.7,3.3-3.7,7.2-3.5c0.7,0,1.3,0.2,2,0.4c2.9,0.9,5.4,3.5,5.1,7.7c-0.3,4.3-3.5,7.4-8.3,7.1C126.8,34.6,123.8,31.4,124.1,26.9
	 M132.3,20.4c-0.8-0.1-2,0-3.1,0.8c-1.8,1.2-2.4,3.4-2.5,5.5c-0.1,0.9-0.1,1.8,0,2.7c0.1,0.7,0.3,2.3,1.4,3.4
	c0.5,0.5,1.5,1.2,3.1,1.4c1.7,0.1,3.1-0.5,3.9-1.4c1-1,1.6-2.9,1.8-5.3c0.1-1.1,0.1-3-0.6-4.5C135.5,21.4,134,20.6,132.3,20.4
	 M148.5,22.9c0.8,0.3,1.3,0.4,1.5,0.8c0.2,0.4,0.1,0.8,0,1.2l-2.5,9.2c-0.2,0.7-0.3,1.1-0.5,1.4c-0.4,0.5-1,0.4-2.1,0.1l-0.2,0.7
	l6.3,1.7l0.2-0.6c-1.1-0.4-1.3-0.4-1.6-0.7c-0.3-0.4-0.2-0.8,0-1.9l1.2-4.3l1.4,0.4c0.4,0.1,1.1,0.3,1.3,1c0.2,0.5,0,1.1-0.1,1.5
	l0.7,0.2l1.3-4.8l-0.6-0.2c-0.1,0.5-0.3,1.1-0.9,1.4c-0.5,0.3-0.9,0.2-1.3,0.1l-1.5-0.4l1.5-5.5l2.6,0.7c0.9,0.3,1.6,0.5,2,1.3
	c0.3,0.6,0.4,1.5,0.4,2.3l0.6,0.2l0.5-3.5l-10.1-2.7L148.5,22.9z M175.2,32.5c1.2,1,1.1,1.5,0.8,2.6l-3.6,12.4l0.7,0.5l8.8-7.4
	l-2.8,11.3l0.7,0.4l9.8-8.4c1.1-0.9,1.5-0.8,2.8-0.1l0.4-0.6l-4.2-2.7l-0.4,0.6c0.9,0.6,1.6,1.1,1.1,1.8c-0.1,0.2-0.3,0.4-0.6,0.6
	l-5.7,4.9c-0.6,0.5-0.8,0.7-1.3,1.2c0.4-1.3,0.5-1.7,0.8-3l2.1-8.6l-0.5-0.4l-9.2,7.7c0.5-1.4,0.7-1.8,1.1-3.2l1.8-6
	c0.1-0.4,0.2-0.6,0.3-0.7c0.3-0.5,0.8-0.3,0.9-0.2c0.2,0.1,0.7,0.4,0.9,0.5l0.3-0.6l-4.8-3.2L175.2,32.5z M198.3,49.7
	c0.7,0.8,0.9,1.1,0.9,1.5c0,0.5-0.4,0.8-0.7,1.1l-7.2,6.8c-1.1,0.9-1.4,0.7-2.6-0.5l-0.5,0.5l8.1,8.7l3.5-2.9l-0.4-0.5
	c-1,0.6-2,1.1-3,1c-1.2-0.1-2-0.9-2.7-1.6c-0.6-0.6-1-1-1.2-1.6c-0.3-0.8,0.1-1.2,0.5-1.7l3.5-3.2l0.9,1c0.4,0.4,0.8,1,0.6,1.8
	c-0.1,0.4-0.5,0.8-0.8,1.1l0.4,0.5l3.6-3.4l-0.4-0.5c-0.3,0.3-0.8,0.7-1.4,0.7c-0.6,0-1-0.4-1.4-0.8l-0.9-1l4.1-3.9l1.9,2.1
	c1.3,1.5,1.3,2.1,0.1,4.3l0.4,0.5l2.4-2.7l-7.1-7.7L198.3,49.7z M203.9,70.4l-3.9,2.4l0.3,0.5c0.6-0.1,0.6-0.1,1.3-0.2
	c-0.1,0.7-0.2,1.6,0.2,2.9c0.2,0.6,0.4,1,0.6,1.4c1.2,2,3.2,2.1,4.1,2c0.8-0.1,1.5-0.5,2-0.7c2.2-1.4,2.1-3.1,1.9-5
	c-0.3-2.9-0.3-3.8,0-4.5c0.1-0.4,0.4-0.8,0.9-1.1c1-0.6,2.2-0.4,3,0.9c0.6,1,0.7,2.2,0.3,3.1c-0.3,0.7-0.8,1.3-1.3,1.8l0.3,0.5
	l3.3-2.1l-0.2-0.4c-0.5,0.1-0.6,0.1-0.9,0.1c0-0.6,0.1-1.1-0.2-1.9c-0.1-0.4-0.3-0.9-0.6-1.4c-1-1.6-3.1-2.8-5.3-1.4
	c-1.9,1.2-1.8,3-1.6,4.8c0.2,2.4,0.2,2.7,0.2,3.3c0,0.5,0,1.7-1.3,2.5c-1.3,0.8-2.9,0.4-3.8-1.1c-0.3-0.5-0.6-1.2-0.6-1.9
	c-0.1-1.9,1.3-3.3,1.8-3.8L203.9,70.4z M217.5,81l0.2,0.6c0.8-0.1,1.5-0.1,2.3,0.1c0.8,0.3,1.1,0.7,1.6,1.9l0.6,1.5l-10.6,4.3
	c-1.4,0.5-1.6,0.1-2.3-1.4l-0.6,0.3l2.4,6l0.6-0.3c-0.3-0.9-0.3-1-0.4-1.2c-0.1-0.8,0.4-1.1,1-1.3l10.7-4.3l0.6,1.4
	c0.3,0.8,0.6,1.5,0.2,2.5c-0.3,0.8-1.1,1.4-1.6,1.8l0.2,0.6l3.3-1.7L221,80L217.5,81z M229.3,109c0.1,0.9,0.1,1.4-0.2,1.7
	c-0.3,0.4-0.7,0.4-1.1,0.4l-9.5,1.2c-0.8,0.1-1.2,0.1-1.5,0c-0.6-0.2-0.7-0.8-0.8-1.9l-0.7,0.1l0.8,6.4l0.7-0.1
	c-0.1-1.2-0.1-1.4,0.1-1.7c0.2-0.4,0.7-0.5,1.8-0.7l4.4-0.6l0.2,1.5c0,0.5,0.1,1.1-0.5,1.6c-0.4,0.4-1,0.4-1.5,0.5l0.1,0.7l4.9-0.6
	l-0.1-0.7c-0.5,0-1.1,0.1-1.7-0.3c-0.4-0.3-0.5-0.8-0.6-1.2l-0.2-1.5l5.7-0.7l0.3,2.7c0.1,0.9,0.2,1.6-0.4,2.3
	c-0.5,0.6-1.3,0.9-2,1.3l0.1,0.6l3.5-0.8l-1.3-10.4L229.3,109z M230.6,128.1c-0.1,0.8-0.1,0.9-0.2,1.1c-0.3,0.9-1.1,0.8-1.5,0.8
	l-9.7-0.8c-1.6-0.2-1.7-0.7-1.6-2.3l-0.7-0.1l-1,11.9l4.4,0.6l0.1-0.6c-1-0.3-2.2-0.6-3-1.9c-0.5-0.8-0.5-1.3-0.4-2l0.2-1.8
	c0.2-1.3,0.7-1.6,2-1.6l9.6,0.8c1.4,0.1,1.5,0.7,1.4,2.2l0.7,0.1l0.5-6.2L230.6,128.1z M222.1,145.6c1.2,0.4,2.4,1,3.3,1.9
	c1.4,1.3,2.9,4,1.8,7.8c-0.2,0.6-0.5,1.2-0.8,1.8c-1.5,2.6-4.7,4.5-8.7,3.2c-4.1-1.3-6.4-5.1-5-9.6
	C214,146.6,217.8,144.3,222.1,145.6 M226.6,155.1c0.2-0.8,0.4-1.9,0-3.2c-0.8-2-2.8-3.1-4.8-3.7c-0.9-0.3-1.7-0.5-2.6-0.6
	c-0.7-0.1-2.3-0.2-3.7,0.6c-0.6,0.4-1.5,1.2-2,2.8c-0.5,1.6-0.2,3.1,0.4,4.1c0.7,1.2,2.4,2.2,4.7,2.9c1,0.3,2.9,0.8,4.6,0.4
	C224.9,158,226,156.7,226.6,155.1 M221.1,171l-2.4,4.4c-0.6,1-1.4,2.4-2.3,3.2c-1.2,1-2.7,1.3-4.1,0.5c-0.7-0.4-1.3-1-1.6-2.1
	c-0.3-1.3,0-2.3,0.4-3.2c-1.2,1.3-1.4,1.3-3.7,1.6l-3.4,0.4c-1.3,0.2-1.5,0.2-2.1,1.3l-0.6-0.3l1.6-2.9c0.6-0.2,0.9-0.3,1.7-0.4
	c0.4,0,2.4-0.1,2.9-0.1c3.6-0.2,3.6-0.2,4.8-2.5l-3.7-2.1c-0.5-0.3-1-0.5-1.5-0.4c-0.5,0.1-0.6,0.5-1.2,1.4l-0.6-0.3l3.1-5.6
	l0.5,0.3c-0.7,1.5-0.9,2,0.6,2.7l8.4,4.6c0.6,0.3,0.9,0.5,1.4,0.4c0.4-0.1,0.5-0.3,1.2-1.3L221.1,171z M212.2,172.8
	c-0.3,0.6-0.6,1.1-0.6,1.6c-0.1,1.2,0.8,2.1,1.8,2.6c1.5,0.8,2.4,0.5,2.9,0.2c0.8-0.5,1.1-1.2,2.1-2.9l-5.5-3L212.2,172.8z
	 M209.1,189c-0.6,0.7-0.9,1-1.3,1.1c-0.5,0.1-0.8-0.2-1.1-0.4l-7.5-6c-1.4-1.2-1.3-1.4-0.2-2.9l-0.5-0.4l-4.1,5.1l0.5,0.4
	c0.7-0.8,0.9-1.2,1.4-1.2c0.4-0.1,0.7,0.2,1.3,0.6l7.6,6.2c1.1,0.9,0.8,1.4-0.1,2.6l0.5,0.4l3.9-4.9L209.1,189z M199.8,201l-5,4.2
	c-1,0.8-2,1.6-3.8,2c-2.9,0.7-5.4-0.5-7.1-2.5c-1.2-1.4-2-3.2-1.8-5.2c0.3-2.7,2.1-4.3,3.1-5.2l5.2-4.4l0.4,0.5
	c-0.9,0.9-1,0.9-1.1,1.2c-0.2,0.6,0.2,1.1,0.7,1.8l6,7.1c1,1.1,1.5,0.9,2.6,0L199.8,201z M189.3,195c-0.7-0.8-1-1.1-1.4-1.2
	c-0.3-0.1-0.8,0-2,0.9c-1.2,1-2.5,2.5-1.7,5c0.3,1.1,1,2.3,1.9,3.4c1.5,1.8,3.2,2.5,4.4,2.7c2.2,0.2,3.8-1.1,4.4-1.7
	c0.4-0.3,0.8-0.7,1.2-1.1L189.3,195z M176.3,218.3l-0.6,0.3l-9.9-8c-1.2-1-1.8-1.4-3.1-0.8l-0.3-0.6l5.3-2.9l0.3,0.6
	c-0.9,0.5-1.6,0.9-1.3,1.5c0.1,0.2,0.2,0.3,0.7,0.7l2.4,2l4.4-2.4l-0.4-2.8c-0.1-0.6-0.2-0.8-0.3-1c-0.3-0.6-0.9-0.4-1.9,0l-0.3-0.6
	l4.2-2.3l0.3,0.6c-1.2,0.8-1.3,1.4-1.2,2.9L176.3,218.3z M172.8,213.6c1.1,0.9,1.3,1.1,2.4,2.1l-0.8-6.1l-3.9,2.1L172.8,213.6z"/>
<path style="fill-rule:evenodd;clip-rule:evenodd;fill:#007A33;" d="M155.2,158.7c-2.2,6.8-7.1,12.2-13.3,15.1c0,0,0,0,0.1,0
	c0,0-4.4,2.1-7.4,2.5c-12.5,1.7-21.4,0.4-31.2-7.4c-6.2-5-8.9-8.9-11.8-16.5c-0.2-0.6-0.4-1.3-0.5-2c-1.6-4.1-2.9-10.4-1.6-19.9
	c1.5-10.9,9.8-19.9,19.4-26.5L81,70.9v98.6c0,0-0.6,11.5,18.8,15.3c19.4,3.8,25.6,12.6,25.6,13.8h0c0-1.2,6.2-10,25.6-13.8
	c11-2.1,15.5-6.8,17.5-10.4L155.2,158.7z"/>
<path style="fill-rule:evenodd;clip-rule:evenodd;fill:#004C97;" d="M127.6,76.1v2c-0.5-0.6-1.2-0.9-1.9-0.9c-1.6,0-2.6,1.5-2.6,3
	c0,1.5,1,2.9,2.6,2.9c0.7,0,1.5-0.4,1.9-0.9v2c-0.2,0.1-0.5,0.2-0.7,0.3h2.1l1.4-8.5L127.6,76.1C127.5,76.1,127.6,76.1,127.6,76.1
	 M117.7,79.2l-1.9,5.4h2.7L117.7,79.2L117.7,79.2z M131.6,79.2l-0.8,5.4h2.7L131.6,79.2L131.6,79.2z M150,76.1h-2.5l1.3,2.5
	L150,76.1z M113.5,76.1l2,5.3l1.9-5.3H113.5z M132,76.1l2,5.3l1.9-5.3H132z M113.2,79.2l-0.8,5.4h2.7L113.2,79.2L113.2,79.2z
	 M121.3,80.3c0-1.8,0.9-3.5,2.4-4.2h-4.9l1.3,8.5h4.1C122.5,84,121.3,82.2,121.3,80.3 M155.5,84.6h2.1v-8.5h-2.1V84.6z M159.3,84.6
	h2.1v-8.5h-2.1V84.6z M149.7,80l2.7,4.6h1.4v-8.5H152L149.7,80z M169.9,169.5V66.8H81v0l30.2,35.7c11.2-7.2,23.6-11.3,28.8-11.7
	c19,16.6-5.3,19.5-1.1,38.6c12.2,2.2,18,10.8,17.6,22.3c0,1.3-0.2,2.6-0.5,3.9l13.6,16.1C169.9,170.4,169.9,169.5,169.9,169.5
	 M164.4,85.9h-54.3v-1.3h0.5l1.4-8.5h-2v-1.3h54.3v1.3h-1.3v8.5h1.3V85.9z M145.6,76.1h-3.7v7.1h2.4v1.5h0.7l2.8-4.6L145.6,76.1z
	 M147,84.6h3.4l-1.8-3.2L147,84.6z M138.6,84.6h1.6v-8.5h-2.8L138.6,84.6z M136.1,79.2l-1.9,5.4h2.7L136.1,79.2L136.1,79.2z"/>
<path style="fill-rule:evenodd;clip-rule:evenodd;" d="M138.9,129.4c-4.3-19.1,20.1-21.9,1.1-38.6c-10.1,0.8-46.9,15.3-50.4,39.6
	c-1.3,9.5-0.1,15.9,1.6,19.9c0.1,0.7,0.3,1.4,0.5,2c2.8,7.6,5.6,11.6,11.8,16.5c9.7,7.8,18.6,9.1,31.2,7.4c3-0.4,7.4-2.5,7.4-2.5
	c0,0,0,0-0.1,0c8.1-3.8,14.1-12.1,14.5-22.1C157,140.3,151.1,131.6,138.9,129.4 M154.9,148.3c-4.9-6.9-10-5.4-12.3-2
	C135.4,136.4,152.9,130.9,154.9,148.3 M132.1,143.6c-1.4,6.8-15.4,0.7-4-9.2C126.1,139.6,128.4,143.3,132.1,143.6 M137.3,130.9
	c-4,2.5-4.5,7.3-1.6,10.7C127.5,144.8,125,132.3,137.3,130.9 M131.1,147c0.7,3.3-1.9,5-4.2,4.7c-1.9-0.3-4-1.6-4.1-7.9
	C125.2,148.1,127.4,148.3,131.1,147 M132.3,149.5c5.3,3.8,0.1,9-5.9,3.5C130.1,153.3,131.8,152.4,132.3,149.5 M140,145
	c-2.1-1-3.6-0.2-4.4,1.3C132,143.8,137,140.4,140,145 M134.9,149.9c1.9-1,8.1,2.8-0.1,5.8C137.4,153,135.7,151,134.9,149.9
	 M136.3,148.5c0.1-3.8,7-3.2,4.4,3.4C140.2,149.8,138.8,148.2,136.3,148.5 M149.3,136c-6.7-1.3-9.7,1.7-10.2,6.3
	C130.1,137.9,137.5,124.1,149.3,136 M90.6,130.7c3.3-23.6,38.8-37.3,47.9-38.9c19.6,14.4-5.4,19.3-1,38.1c-9.4,0-19.4,7.3-15.1,21.8
	c-1.2,14.9-23.2,8.6-27,4.2C94.9,155.3,88.1,148.9,90.6,130.7 M94.6,157c22.7,13,30,0,29.3-5.3C141.9,170.5,111.6,186.4,94.6,157
	 M116.6,174.7c16.1-1,15.4-15,12.7-18.3C146,154.8,147.6,182,116.6,174.7 M136.5,174.8c11.2-6.6,4.1-17.1,0.2-18.4
	C152.2,145.6,157.8,168.9,136.5,174.8 M151.2,164.7c1.7-10.1-3.5-13.7-8.9-12.1C142.9,136.8,163.2,147,151.2,164.7"/>
</svg>
